<?xml version="1.0" standalone="no"?>
<!DOCTYPE svg PUBLIC "-//W3C//DTD SVG 20010904//EN"
 "http://www.w3.org/TR/2001/REC-SVG-20010904/DTD/svg10.dtd">
<svg version="1.0" xmlns="http://www.w3.org/2000/svg"
 width="1250.000000pt" height="724.000000pt" viewBox="0 0 1250.000000 724.000000"
 preserveAspectRatio="xMidYMid meet">

<g transform="translate(0.000000,724.000000) scale(0.100000,-0.100000)"
fill="#f0f9ff" stroke="#FFF">

<path d="M11570 6790 c-139 -4 -58 -6 283 -8 313 -1 477 1 477 8 0 11 -397 11
-760 0z"/>
<path d="M10423 6783 c9 -2 23 -2 30 0 6 3 -1 5 -18 5 -16 0 -22 -2 -12 -5z"/>
<path d="M11308 6783 c7 -3 16 -2 19 1 4 3 -2 6 -13 5 -11 0 -14 -3 -6 -6z"/>
<path d="M186 6718 c16 -31 541 -934 679 -1168 34 -58 144 -247 245 -420 100
-173 188 -320 194 -327 14 -14 479 -22 1348 -23 l627 0 62 -105 c50 -87 76
-119 146 -181 46 -41 90 -73 96 -71 21 6 20 128 -1 210 -30 116 -170 337 -254
400 -18 14 -112 70 -208 125 -622 355 -1020 580 -1054 596 -21 10 -76 21 -122
26 -92 8 -60 -9 -599 304 -99 57 -265 153 -370 214 -104 60 -282 162 -395 228
-266 153 -393 224 -403 224 -4 0 0 -15 9 -32z"/>
<path d="M12210 6701 c-47 -27 -184 -105 -305 -176 -121 -70 -381 -220 -578
-334 -196 -113 -365 -211 -375 -216 -9 -6 -64 -37 -122 -69 -58 -32 -122 -69
-143 -83 -25 -16 -71 -30 -130 -40 -86 -14 -103 -22 -252 -108 -88 -51 -182
-105 -210 -121 -51 -28 -356 -204 -475 -274 -36 -21 -153 -88 -260 -150 -259
-148 -313 -204 -444 -466 -28 -56 -36 -141 -13 -149 18 -7 170 50 176 66 12
30 113 189 124 196 7 4 454 8 994 8 970 0 982 0 997 20 52 70 418 702 724
1250 30 55 77 137 104 183 26 45 48 84 48 86 0 2 52 94 115 206 64 112 114
207 113 211 -2 4 -41 -14 -88 -40z"/>
<path d="M9708 6343 c-28 -30 -54 -74 -357 -598 -112 -192 -218 -375 -236
-405 -30 -50 -375 -646 -415 -715 -35 -61 -128 -223 -177 -305 -188 -317 -266
-451 -378 -645 -70 -121 -136 -233 -145 -250 -9 -16 -49 -84 -87 -150 -281
-482 -364 -627 -360 -631 3 -3 66 31 141 76 75 44 155 90 178 103 22 12 48 27
57 32 9 6 39 23 66 39 28 16 129 75 225 131 96 56 279 162 405 235 127 73 269
157 317 187 48 29 90 53 93 53 17 0 105 67 113 86 12 24 16 14 -117 259 -122
225 -178 397 -188 570 -8 152 4 197 100 365 108 189 163 247 317 333 106 60
427 244 665 382 55 32 172 100 260 150 88 51 177 103 199 115 l39 24 -39 34
c-22 19 -64 58 -94 86 -30 28 -75 69 -100 90 -25 22 -74 67 -110 100 -70 65
-329 276 -340 276 -3 0 -18 -12 -32 -27z"/>
<path d="M11024 4551 c-10 -10 -163 -101 -339 -202 -384 -220 -554 -317 -825
-474 -113 -65 -263 -152 -335 -193 -132 -76 -242 -122 -292 -122 -24 0 -520
-280 -1063 -600 -113 -66 -551 -321 -640 -372 -36 -21 -54 -25 -90 -21 -25 3
-209 -2 -410 -11 -201 -9 -450 -19 -555 -22 -104 -4 -196 -11 -202 -17 -10 -7
-13 -133 -14 -561 -1 -303 -5 -643 -8 -756 l-6 -205 -7 140 c-4 77 -9 416 -10
752 -1 337 -5 618 -9 625 -8 13 -242 22 -729 28 l-205 3 135 8 c74 5 280 12
458 16 270 7 324 10 332 23 12 18 14 1930 2 1930 -4 0 -16 -17 -27 -37 -11
-21 -29 -54 -41 -73 -12 -19 -124 -210 -249 -425 -125 -214 -265 -453 -310
-530 -45 -77 -131 -223 -190 -325 -59 -102 -124 -214 -145 -250 -21 -36 -61
-105 -90 -155 -29 -49 -67 -113 -85 -141 l-33 -51 82 -144 c45 -79 164 -283
263 -454 99 -170 242 -418 319 -550 76 -132 159 -276 184 -320 141 -242 206
-354 226 -390 12 -22 47 -82 77 -133 l55 -94 19 29 c11 15 53 87 93 158 40 72
120 213 178 315 121 214 205 362 298 528 37 64 104 182 149 262 45 80 162 287
260 460 98 173 182 320 186 326 7 8 273 13 932 18 507 3 969 10 1027 15 59 5
133 18 170 31 111 37 289 130 364 190 104 83 157 147 253 310 47 80 127 215
178 300 51 85 213 358 360 605 148 248 284 476 303 508 37 60 39 79 6 48z"/>
<path d="M1469 4508 c22 -41 316 -548 438 -758 50 -85 131 -225 180 -310 274
-473 295 -503 460 -640 112 -93 261 -171 393 -206 94 -25 99 -26 690 -34 755
-11 1400 -12 1400 -2 -1 9 -26 42 -33 42 -6 0 -385 207 -402 220 -5 4 -41 24
-80 45 -38 21 -194 109 -345 195 -151 87 -358 205 -460 262 -102 58 -214 122
-250 143 -144 82 -170 95 -197 95 -50 0 -137 27 -198 63 -33 18 -152 87 -265
152 -113 65 -293 168 -400 230 -107 62 -360 207 -562 323 -202 117 -372 212
-377 212 -6 0 -2 -15 8 -32z"/>
</g>
</svg>
